<mxfile host="app.diagrams.net" modified="2023-08-28T00:16:04.866Z" agent="Mozilla/5.0 (Windows NT 10.0; Win64; x64) AppleWebKit/537.36 (KHTML, like Gecko) Chrome/115.0.0.0 Safari/537.36 OPR/101.0.0.0" version="21.6.9" etag="BzIsV1Bv2v965sV4RsQe" type="github">
  <diagram name="Page-1" id="zZhLEwhTpl73Az72y6mR">
    <mxGraphModel>
      <root>
        <mxCell id="0" />
        <mxCell id="1" parent="0" />
      </root>
    </mxGraphModel>
  </diagram>
</mxfile>
